<svg xmlns="http://www.w3.org/2000/svg" xmlns:xlink="http://www.w3.org/1999/xlink" version="1.1" id="ccc-logo" x="0px" y="0px" width="171px" height="66px" viewBox="0 0 171 66" enable-background="new 0 0 171 66" xml:space="preserve"><style type="text/css">.ccc-logo{fill:	#3A95A1;}</style><g><g><g><g><path d="M2.336 61.814v-4.951h1.457c0.409 0 0.8 0.1 1.1 0.2c0.309 0.1 0.6 0.3 0.8 0.5 c0.2 0.2 0.4 0.5 0.5 0.8c0.11 0.3 0.2 0.6 0.2 1s-0.06 0.659-0.17 0.958c-0.13 0.309-0.28 0.569-0.499 0.8 c-0.22 0.23-0.479 0.419-0.789 0.5c-0.309 0.13-0.669 0.19-1.058 0.19H2.336V61.814z M3.734 63.8 c0.669 0 1.288-0.09 1.847-0.309c0.559-0.22 1.038-0.509 1.437-0.908c0.409-0.389 0.719-0.858 0.938-1.408 s0.339-1.148 0.339-1.827c0-0.649-0.12-1.258-0.339-1.807c-0.22-0.559-0.529-1.028-0.938-1.427 c-0.399-0.389-0.878-0.679-1.437-0.898c-0.559-0.22-1.178-0.319-1.847-0.319H0.35v8.904h3.384V63.791z" class="ccc-logo"></path><polygon points="16.3,63.7 16.3,61.7 12.1,61.7 12.1,60.3 16.2,60.3 16.2,58.3 12.1,58.3 12.1,56.8 16.3,56.8 16.3,54.8 10.1,54.8 10.1,63.7" class="ccc-logo"></polygon><path d="M22.95 63.496c0.429-0.12 0.809-0.309 1.118-0.539c0.309-0.24 0.529-0.509 0.679-0.839 c0.16-0.309 0.23-0.669 0.23-1.048c0-0.499-0.12-0.918-0.369-1.228s-0.559-0.559-0.928-0.739 c-0.379-0.19-0.759-0.329-1.178-0.429c-0.439-0.1-0.829-0.19-1.198-0.28c-0.369-0.08-0.669-0.17-0.918-0.299 c-0.25-0.12-0.369-0.289-0.369-0.509c0-0.25 0.09-0.429 0.309-0.589c0.2-0.15 0.509-0.23 0.918-0.23c0.429 0 0.9 0.1 1.3 0.2 c0.439 0.2 0.8 0.4 1.2 0.709l1.028-1.437c-0.868-0.988-2.006-1.477-3.374-1.477c-0.509 0-0.978 0.07-1.378 0.2 c-0.419 0.12-0.779 0.309-1.068 0.5c-0.299 0.23-0.529 0.499-0.689 0.789c-0.15 0.309-0.23 0.619-0.23 1c0 0.5 0.1 0.9 0.4 1.2 c0.25 0.3 0.5 0.5 0.9 0.729c0.359 0.2 0.8 0.3 1.2 0.419c0.429 0.1 0.8 0.2 1.2 0.3c0.379 0.1 0.7 0.2 0.9 0.3 c0.25 0.1 0.4 0.3 0.4 0.539c0 0.25-0.12 0.449-0.369 0.6c-0.25 0.18-0.619 0.28-1.118 0.3c-0.589 0-1.118-0.11-1.577-0.339 c-0.469-0.22-0.858-0.499-1.148-0.819l-1.018 1.4c0.409 0.5 0.9 0.9 1.5 1.2s1.308 0.5 2.1 0.5 C21.982 63.7 22.5 63.6 22.9 63.496H22.95z" class="ccc-logo"></path><rect x="26" y="54.8" width="2" height="8.9" class="ccc-logo"></rect><path d="M36.187 63.247c0.649-0.289 1.228-0.699 1.707-1.188v-3.314h-4.272v1.987h2.286v0.599 c-0.19 0.09-0.469 0.19-0.829 0.3c-0.369 0.1-0.759 0.13-1.178 0.13c-0.429 0-0.819-0.06-1.188-0.19 c-0.379-0.12-0.689-0.289-0.948-0.509c-0.27-0.22-0.469-0.479-0.609-0.789c-0.15-0.309-0.22-0.639-0.22-0.988 c0-0.339 0.07-0.669 0.21-0.978c0.12-0.309 0.309-0.569 0.559-0.789c0.23-0.21 0.509-0.399 0.849-0.519 c0.329-0.13 0.679-0.19 1.088-0.19c0.459 0 0.9 0.1 1.2 0.339c0.339 0.2 0.6 0.5 0.8 0.769l1.517-0.819 c-0.17-0.26-0.369-0.539-0.589-0.819s-0.479-0.539-0.759-0.759c-0.299-0.21-0.629-0.379-0.998-0.509 c-0.369-0.12-0.779-0.18-1.208-0.18c-0.639 0-1.228 0.1-1.787 0.309c-0.559 0.21-1.058 0.509-1.487 0.9 c-0.439 0.389-0.789 0.858-1.038 1.4c-0.25 0.559-0.379 1.168-0.379 1.847s0.13 1.3 0.4 1.8c0.25 0.6 0.6 1 1.1 1.4 c0.459 0.4 1 0.7 1.6 0.9c0.589 0.2 1.2 0.3 1.9 0.3C34.759 63.7 35.5 63.6 36.2 63.247H36.187z" class="ccc-logo"></path><polygon points="47.8,63.7 47.8,54.8 45.8,54.8 45.8,60.4 41.8,54.8 39.9,54.8 39.9,63.7 41.9,63.7 41.9,57.9 46,63.7" class="ccc-logo"></polygon></g><g><path d="M77.424 61.72v-4.951h1.457c0.399 0 0.8 0.1 1.1 0.2c0.319 0.1 0.6 0.3 0.8 0.5 c0.2 0.2 0.4 0.5 0.5 0.8c0.11 0.3 0.2 0.6 0.2 1s-0.07 0.659-0.18 0.958c-0.12 0.309-0.28 0.569-0.489 0.8 c-0.22 0.23-0.489 0.419-0.799 0.5c-0.309 0.13-0.659 0.19-1.048 0.19h-1.541V61.72z M78.812 63.7 c0.669 0 1.288-0.09 1.847-0.309c0.559-0.22 1.048-0.509 1.447-0.908c0.399-0.389 0.719-0.858 0.928-1.408 c0.22-0.549 0.349-1.148 0.349-1.827c0-0.649-0.13-1.258-0.349-1.807c-0.21-0.559-0.529-1.028-0.928-1.427 c-0.399-0.389-0.888-0.679-1.447-0.898c-0.559-0.22-1.178-0.319-1.847-0.319h-3.374v8.904h3.374V63.696z" class="ccc-logo"></path><polygon points="91.6,63.7 91.6,61.7 87.3,61.7 87.3,60.3 91.5,60.3 91.5,58.3 87.3,58.3 87.3,56.8 91.6,56.8 91.6,54.8 85.4,54.8 85.4,63.7" class="ccc-logo"></polygon><polygon points="97.9,63.7 101.2,54.8 99.1,54.8 96.7,61.6 94.4,54.8 92.3,54.8 95.6,63.7" class="ccc-logo"></polygon><polygon points="108.5,63.7 108.5,61.7 104.2,61.7 104.2,60.3 108.4,60.3 108.4,58.3 104.2,58.3 104.2,56.8 108.5,56.8 108.5,54.8 102.3,54.8 102.3,63.7" class="ccc-logo"></polygon><polygon points="115.8,63.7 115.8,61.7 112.2,61.7 112.2,54.8 110.2,54.8 110.2,63.7" class="ccc-logo"></polygon><path d="M119.88 61.53c-0.369-0.12-0.679-0.309-0.928-0.529c-0.27-0.21-0.469-0.459-0.609-0.769 c-0.14-0.309-0.2-0.639-0.2-0.988c0-0.339 0.06-0.669 0.2-0.978c0.14-0.309 0.339-0.569 0.609-0.789 c0.25-0.21 0.559-0.399 0.928-0.519c0.369-0.13 0.779-0.19 1.238-0.19c0.439 0 0.8 0.1 1.2 0.19c0.369 0.1 0.7 0.3 0.9 0.5 c0.27 0.2 0.5 0.5 0.6 0.8c0.14 0.3 0.2 0.6 0.2 0.978c0 0.349-0.08 0.679-0.22 0.988s-0.339 0.559-0.609 0.8 c-0.26 0.22-0.569 0.409-0.938 0.5c-0.379 0.13-0.779 0.19-1.218 0.19C120.658 61.7 120.2 61.7 119.9 61.53H119.88z M123.104 63.4c0.609-0.22 1.138-0.529 1.567-0.928c0.439-0.389 0.799-0.858 1.038-1.408c0.25-0.549 0.379-1.148 0.379-1.797 s-0.13-1.238-0.379-1.797c-0.24-0.539-0.599-1.008-1.038-1.408c-0.429-0.389-0.958-0.699-1.567-0.908 c-0.619-0.22-1.268-0.339-1.987-0.339c-0.709 0-1.378 0.12-1.987 0.339c-0.619 0.21-1.148 0.519-1.577 0.9 c-0.439 0.399-0.779 0.868-1.028 1.408c-0.25 0.559-0.369 1.148-0.369 1.797s0.12 1.2 0.4 1.8c0.25 0.5 0.6 1 1 1.4 c0.429 0.4 1 0.7 1.6 0.928c0.609 0.2 1.3 0.3 2 0.3c0.68 0 1.344-0.095 1.944-0.318L123.104 63.4z" class="ccc-logo"></path><path d="M129.063 58.745v-1.977h1.807c0.339 0 0.6 0.1 0.8 0.3c0.21 0.2 0.3 0.4 0.3 0.7 s-0.13 0.559-0.339 0.7c-0.22 0.19-0.499 0.26-0.839 0.26h-1.729V58.745z M129.063 63.696v-2.965h2.146 c0.449 0 0.849-0.08 1.198-0.24c0.339-0.15 0.629-0.369 0.878-0.649c0.25-0.26 0.439-0.569 0.559-0.938 c0.13-0.359 0.19-0.749 0.19-1.148s-0.06-0.769-0.19-1.148c-0.12-0.349-0.309-0.659-0.559-0.938 c-0.25-0.28-0.559-0.499-0.918-0.649c-0.369-0.16-0.769-0.23-1.238-0.23h-4.053v8.904L129.063 63.696L129.063 63.696z" class="ccc-logo"></path><polygon points="144,63.7 144,54.8 141.5,54.8 139.5,60.2 137.5,54.8 135,54.8 135,63.7 137,63.7 137,57.5 139.1,63.7 139.9,63.7 142,57.5 142,63.7" class="ccc-logo"></polygon><polygon points="152.2,63.7 152.2,61.7 147.9,61.7 147.9,60.2 152.1,60.2 152.1,58.2 147.9,58.2 147.9,56.8 152.2,56.8 152.2,54.8 146,54.8 146,63.7" class="ccc-logo"></polygon><polygon points="161.8,63.7 161.8,54.8 159.9,54.8 159.9,60.4 155.8,54.8 153.9,54.8 153.9,63.7 155.9,63.7 155.9,57.9 160,63.7" class="ccc-logo"></polygon><polygon points="167.8,63.7 167.8,56.8 170.3,56.8 170.3,54.8 163.3,54.8 163.3,56.8 165.8,56.8 165.8,63.7" class="ccc-logo"></polygon></g><polygon points="66.2,52.7 66.3,52.8 62.4,58.3 66.5,59.8 56.9,65.9 60.9,60.3 56.8,58.7" class="ccc-logo"></polygon></g></g><g><path d="M11.949 18.935c-0.779 0.21-1.667 0.309-2.665 0.3c-1.408 0-2.665-0.22-3.773-0.669 c-1.098-0.449-2.036-1.078-2.805-1.897s-1.348-1.817-1.747-2.995C0.549 12.5 0.3 11.2 0.3 9.751c0-1.427 0.22-2.725 0.639-3.903 C1.418 4.7 2 3.7 2.8 2.8s1.687-1.487 2.765-1.937c1.078-0.459 2.266-0.689 3.554-0.689c0.998 0 1.9 0.1 2.7 0.3 c0.819 0.2 1.5 0.4 2.2 0.8L13.29 6.1c-0.509-0.389-1.078-0.719-1.697-0.978C10.961 4.8 10.3 4.7 9.6 4.7 c-1.148 0-2.086 0.439-2.805 1.3C6.04 6.9 5.7 8.1 5.7 9.7c0 0.8 0.1 1.6 0.3 2.206c0.23 0.6 0.5 1.2 0.9 1.6 c0.379 0.4 0.8 0.7 1.3 0.948c0.509 0.2 1.1 0.3 1.7 0.3c0.609 0 1.208-0.09 1.787-0.27c0.589-0.17 1.208-0.429 1.867-0.769 l0.679 4.332C13.507 18.4 12.7 18.7 11.9 18.935H11.949z" class="ccc-logo"></path><path d="M26.943 5.698c-0.589-0.968-1.427-1.457-2.526-1.457S22.47 4.7 21.9 5.7 c-0.599 0.968-0.888 2.286-0.888 4s0.289 3 0.9 3.953c0.589 1 1.4 1.5 2.5 1.5s1.937-0.479 2.526-1.457 c0.599-0.968 0.888-2.286 0.888-3.953S27.542 6.7 26.9 5.7h0.043V5.698z M32.533 13.5c-0.419 1.178-1.008 2.196-1.777 3 c-0.759 0.849-1.687 1.507-2.765 2c-1.078 0.469-2.276 0.699-3.604 0.7c-1.308 0-2.496-0.23-3.584-0.699 c-1.078-0.459-1.996-1.118-2.755-1.957c-0.749-0.839-1.338-1.837-1.757-3.015c-0.419-1.168-0.629-2.466-0.629-3.893 s0.21-2.735 0.629-3.913c0.419-1.178 1.008-2.196 1.777-3.045c0.759-0.849 1.687-1.507 2.765-1.967 c1.078-0.469 2.286-0.699 3.604-0.699c1.328 0 2.5 0.2 3.6 0.7c1.068 0.5 2 1.1 2.7 1.957c0.759 0.8 1.3 1.8 1.8 3 c0.419 1.2 0.6 2.5 0.6 3.9S32.952 12.4 32.5 13.534L32.533 13.5z" class="ccc-logo"></path><polygon points="50.8,19 50.2,7.7 47.7,19 42.5,19 40.1,7.7 39.4,19 34.8,19 36.1,0.5 43,0.5 45.7,12.2 48.3,0.5 55,0.5 56.3,19" class="ccc-logo"></polygon><polygon points="63.9,5 63.9,7.8 68.2,7.8 69,12.5 63.9,12.5 63.9,19 58.6,19 58.6,0.5 69.9,0.5 69.9,5" class="ccc-logo"></polygon><polygon points="82,12.4 82,19 76.7,19 76.7,12.4 70.5,0.9 76.2,0.2 79.6,7.3 83,0.5 88.5,0.5" class="ccc-logo"></polygon><path d="M106.184 18.935c-0.779 0.21-1.667 0.309-2.655 0.3c-1.418 0-2.675-0.22-3.783-0.669 c-1.098-0.449-2.036-1.078-2.805-1.897s-1.348-1.817-1.747-2.995s-0.599-2.486-0.599-3.933c0-1.427 0.21-2.725 0.639-3.903 c0.419-1.178 1.018-2.186 1.787-3.025c0.769-0.839 1.687-1.487 2.765-1.937c1.088-0.459 2.266-0.689 3.554-0.689 c0.998 0 1.9 0.1 2.7 0.289c0.819 0.2 1.6 0.4 2.2 0.759l-0.729 4.8c-0.509-0.389-1.068-0.719-1.697-0.978 c-0.629-0.25-1.298-0.389-2.016-0.389c-1.148 0-2.076 0.439-2.805 1.3c-0.719 0.868-1.078 2.116-1.078 3.7 c0 0.8 0.1 1.6 0.3 2.206c0.23 0.6 0.5 1.2 0.9 1.6c0.379 0.4 0.8 0.7 1.3 0.948c0.509 0.2 1.1 0.3 1.7 0.3 c0.609 0 1.208-0.09 1.787-0.27c0.589-0.17 1.208-0.429 1.867-0.769l0.679 4.332C107.741 18.4 107 18.7 106.2 18.935H106.184z" class="ccc-logo"></path><polygon points="120.9,19 120.9,11.7 115.9,11.7 115.9,19 110.5,19 110.5,0.5 115.9,0.5 115.9,7 120.9,7 120.9,0.5 126.2,0.5 126.2,19" class="ccc-logo"></polygon><path d="M136.72 5.898l-1.697 5.85h3.344L136.72 5.898z M140.583 19.1l-1.048-3.174h-5.64l-0.918 3.025h-5.171 l6.219-18.607h5.989l5.979 17.899l-5.41 0.861V19.1z" class="ccc-logo"></path><rect x="147.5" y="0.5" width="5.4" height="18.5" class="ccc-logo"></rect><path d="M170.396 18.216l-5.46 0.888l-3.344-5.89h-0.888v5.74h-5.301V0.487h6.898c2.336 0 4.1 0.5 5.4 1.5 c1.278 1 1.9 2.5 1.9 4.532c0 2.436-1.038 4.193-3.115 5.281l3.91 6.363L170.396 18.216L170.396 18.216z M163.578 5 c-0.459-0.409-1.128-0.609-1.996-0.609h-1.068v4.961h1.098c0.868 0 1.527-0.22 1.987-0.659c0.449-0.439 0.679-1.068 0.679-1.897 C164.277 6 164 5.4 163.6 4.999L163.578 5L163.578 5z" class="ccc-logo"></path></g><g><path d="M12.758 44.45c1.038-0.629 1.917-1.437 2.625-2.426l-1.797-1.018c-0.489 0.749-1.148 1.358-1.967 1.8 c-0.809 0.469-1.697 0.699-2.665 0.699c-0.928 0-1.787-0.17-2.575-0.519c-0.799-0.349-1.477-0.839-2.056-1.467 c-0.589-0.619-1.038-1.368-1.368-2.236c-0.329-0.868-0.499-1.817-0.499-2.845c0-1.048 0.17-1.996 0.499-2.855 c0.329-0.868 0.779-1.607 1.368-2.236c0.579-0.619 1.258-1.108 2.056-1.457c0.789-0.349 1.647-0.519 2.575-0.519 c0.968 0 1.9 0.2 2.7 0.709c0.819 0.5 1.5 1.1 2 1.807l1.767-1.008c-0.339-0.489-0.719-0.938-1.148-1.348 c-0.429-0.409-0.908-0.769-1.447-1.078c-0.529-0.299-1.108-0.539-1.737-0.709c-0.639-0.17-1.318-0.25-2.066-0.25 c-1.208 0-2.346 0.22-3.394 0.649c-1.058 0.429-1.977 1.038-2.745 1.8c-0.779 0.789-1.378 1.727-1.817 2.8 c-0.429 1.098-0.649 2.316-0.649 3.644s0.22 2.5 0.6 3.6c0.439 1.1 1 2 1.8 2.825c0.769 0.8 1.7 1.4 2.7 1.8 c1.048 0.4 2.2 0.6 3.4 0.6C10.452 45.4 11.7 45.1 12.8 44.45H12.758z" class="ccc-logo"></path><path d="M25.126 42.992c-0.779-0.349-1.437-0.849-1.977-1.477c-0.549-0.639-0.958-1.388-1.258-2.246 c-0.289-0.868-0.429-1.797-0.429-2.805s0.14-1.947 0.429-2.815c0.299-0.868 0.709-1.617 1.258-2.246 c0.539-0.629 1.198-1.118 1.977-1.477c0.769-0.349 1.637-0.529 2.585-0.529c0.958 0 1.8 0.2 2.6 0.529c0.769 0.4 1.4 0.8 2 1.5 c0.549 0.6 1 1.4 1.3 2.2c0.299 0.9 0.4 1.8 0.4 2.815s-0.15 1.937-0.449 2.805c-0.289 0.858-0.709 1.607-1.258 2.2 c-0.539 0.629-1.198 1.128-1.967 1.477c-0.759 0.359-1.617 0.539-2.575 0.539C26.763 43.5 25.9 43.4 25.1 42.992H25.126z M31.126 44.729c1.028-0.449 1.897-1.068 2.635-1.877c0.729-0.799 1.298-1.747 1.707-2.835c0.399-1.088 0.599-2.276 0.599-3.554 s-0.2-2.466-0.599-3.554c-0.409-1.088-0.978-2.036-1.707-2.835c-0.739-0.809-1.607-1.427-2.635-1.887 c-1.028-0.449-2.166-0.669-3.414-0.669s-2.376 0.22-3.404 0.669c-1.028 0.459-1.907 1.078-2.645 1.9 c-0.729 0.799-1.298 1.747-1.697 2.835c-0.409 1.088-0.609 2.276-0.609 3.554c0 1.3 0.2 2.5 0.6 3.6c0.399 1.1 1 2 1.7 2.8 c0.739 0.8 1.6 1.4 2.6 1.877c1.028 0.4 2.2 0.7 3.4 0.7s2.44-0.288 3.443-0.759h0.026V44.729z" class="ccc-logo"></path><polygon points="55.2,45.1 55.2,27.8 53.1,27.8 53.1,41.3 43.4,27.8 41.3,27.8 41.3,45.1 43.4,45.1 43.4,31.3 53.2,45.1" class="ccc-logo"></polygon><path d="M69.408 44.969c0.789-0.299 1.427-0.689 1.907-1.168c0.479-0.469 0.829-1.018 1.038-1.637 s0.319-1.238 0.319-1.857c0-0.819-0.14-1.507-0.429-2.056c-0.28-0.559-0.659-1.028-1.118-1.408 c-0.469-0.379-0.998-0.699-1.597-0.938c-0.599-0.25-1.208-0.459-1.837-0.639l-1.847-0.519c-0.599-0.17-1.128-0.359-1.587-0.589 c-0.469-0.23-0.839-0.489-1.128-0.809c-0.28-0.309-0.429-0.709-0.429-1.198c0-0.829 0.329-1.497 0.978-2.006 c0.649-0.499 1.477-0.749 2.486-0.749c0.928 0 1.8 0.2 2.7 0.5c0.849 0.3 1.6 0.9 2.2 1.587l1.268-1.587 c-0.709-0.769-1.567-1.358-2.556-1.757c-0.998-0.409-2.136-0.609-3.434-0.609c-0.829 0-1.597 0.12-2.306 0.3 c-0.709 0.24-1.308 0.569-1.817 1c-0.499 0.429-0.888 0.938-1.178 1.5c-0.28 0.589-0.429 1.238-0.429 1.9 c0 0.8 0.1 1.4 0.4 1.957c0.289 0.5 0.7 1 1.1 1.3c0.459 0.3 1 0.6 1.6 0.868c0.599 0.2 1.2 0.4 1.8 0.609l1.837 0.5 c0.599 0.2 1.1 0.4 1.6 0.6c0.459 0.3 0.8 0.6 1.1 0.9c0.289 0.4 0.4 0.8 0.4 1.378c0 0.329-0.07 0.669-0.2 1 c-0.14 0.359-0.359 0.679-0.659 0.968c-0.299 0.28-0.709 0.519-1.218 0.7c-0.499 0.19-1.128 0.289-1.887 0.3 c-0.599 0-1.148-0.07-1.677-0.21c-0.519-0.14-0.998-0.319-1.447-0.549c-0.449-0.22-0.858-0.489-1.228-0.789 s-0.689-0.609-0.958-0.918l-1.238 1.637c0.709 0.8 1.6 1.5 2.7 2c1.058 0.5 2.3 0.7 3.8 0.7C67.651 45.4 68.6 45.3 69.4 45 H69.408z" class="ccc-logo"></path><path d="M87.526 44.919c0.858-0.329 1.577-0.809 2.156-1.418c0.569-0.609 0.998-1.358 1.288-2.226 c0.28-0.878 0.429-1.847 0.429-2.925V27.809h-2.106V38.36c0 1.597-0.409 2.855-1.218 3.8c-0.809 0.928-1.996 1.388-3.554 1.4 c-1.567 0-2.765-0.459-3.564-1.388c-0.809-0.928-1.218-2.186-1.218-3.783v-10.58h-2.106V38.38c0 1.1 0.1 2 0.4 2.9 c0.289 0.9 0.7 1.6 1.3 2.206c0.579 0.6 1.3 1.1 2.2 1.4c0.858 0.3 1.9 0.5 3 0.509c1.127 0 2.167-0.2 2.967-0.481h0.026V44.919z" class="ccc-logo"></path><polygon points="107.1,45.1 107.1,43.2 99.3,43.2 99.3,27.8 97.2,27.8 97.2,45.1" class="ccc-logo"></polygon><polygon points="118.3,45.1 118.3,29.7 123.7,29.7 123.7,27.8 110.9,27.8 110.9,29.7 116.2,29.7 116.2,45.1" class="ccc-logo"></polygon><rect x="128.3" y="27.8" width="2.1" height="17.3" class="ccc-logo"></rect><polygon points="150.1,45.1 150.1,27.8 148,27.8 148,41.3 138.4,27.8 136.2,27.8 136.2,45.1 138.3,45.1 138.3,31.3 148.1,45.1" class="ccc-logo"></polygon><path d="M167.676 44.6c1.128-0.539 2.076-1.248 2.875-2.126v-6.159h-7.896v1.877h5.79v3.494 c-0.2 0.21-0.459 0.419-0.779 0.6c-0.309 0.22-0.659 0.429-1.058 0.6c-0.389 0.18-0.809 0.319-1.268 0.429s-0.938 0.17-1.447 0.2 c-0.938 0-1.807-0.18-2.595-0.539c-0.799-0.349-1.497-0.839-2.076-1.467c-0.589-0.619-1.048-1.368-1.378-2.236 s-0.489-1.817-0.489-2.845c0-1.038 0.16-1.987 0.489-2.845s0.789-1.597 1.368-2.226s1.268-1.108 2.056-1.457 c0.789-0.349 1.657-0.519 2.575-0.519c1.018 0 1.9 0.2 2.8 0.649c0.858 0.4 1.5 1 2.1 1.717l1.667-1.068 c-0.759-0.928-1.657-1.697-2.715-2.286c-1.048-0.589-2.326-0.888-3.833-0.888c-1.198 0-2.316 0.22-3.374 0.6 c-1.048 0.429-1.967 1.038-2.735 1.8c-0.779 0.779-1.388 1.717-1.827 2.815c-0.439 1.088-0.659 2.316-0.659 3.7 c0 1.3 0.2 2.6 0.7 3.674c0.459 1.1 1.1 2 1.9 2.8c0.789 0.8 1.7 1.4 2.8 1.8c1.058 0.4 2.2 0.6 3.4 0.6 C165.3 45.4 166.6 45.1 167.7 44.6H167.676z" class="ccc-logo"></path></g></g></svg>